<svg width="98" height="19" viewBox="0 0 98 19" fill="none" xmlns="http://www.w3.org/2000/svg">
<g clip-path="url(#clip0_5_1151)">
<path d="M84.6169 9.09666L96.5696 1.49548C97.0063 1.23155 96.8425 0.650906 96.3513 0.650906H92.0942C91.8213 0.650906 91.603 0.703692 91.4392 0.86205L80.0323 8.30487V1.23155C80.0323 0.914836 79.7595 0.650906 79.432 0.650906H76.6485C76.321 0.650906 76.0481 0.914836 76.0481 1.23155V18.0703C76.0481 18.387 76.321 18.6509 76.6485 18.6509H79.432C79.7595 18.6509 80.0323 18.387 80.0323 18.0703V10.2579L92.0396 18.4398C92.2033 18.5453 92.4762 18.6509 92.6945 18.6509H97.0062C97.4975 18.6509 97.6612 18.0703 97.2791 17.7535L84.6169 9.09666Z" fill="white"/>
<path d="M47.4045 11.6509H43.2141V15.6074H30.2073V11.6509H26.0169V15.3031C26.0169 17.5857 27.2686 18.6509 30.0441 18.6509C30.2073 18.6509 43.2685 18.6509 43.4318 18.6509C46.2073 18.6509 47.459 17.6364 47.459 15.3031L47.4045 11.6509Z" fill="white"/>
<path d="M43.5153 0.650906C43.3512 0.650906 30.2274 0.650906 30.0634 0.650906C27.2746 0.650906 26.0169 1.67281 26.0169 4.02317V6.27135V7.65091H30.2274V3.66551H43.2419V7.65091H47.4524V6.27135V4.02317C47.5618 1.7239 46.3041 0.650906 43.5153 0.650906Z" fill="white"/>
<path d="M18.1766 9.59797C19.6772 9.3862 20.8027 8.16856 20.8027 6.6862V4.14503C20.8027 1.76267 19.57 0.650906 16.8367 0.650906H1.13361C0.812044 0.650906 0.490479 0.968553 0.490479 1.2862V17.9627C0.490479 18.3862 0.812044 18.6509 1.13361 18.6509H16.3008C19.302 18.6509 20.9099 17.4333 20.9099 15.1038V12.4568C20.9635 10.9744 19.7308 9.70385 18.1766 9.59797ZM4.40285 3.7215H15.2825C16.3544 3.7215 16.8903 4.19797 16.8903 5.25679V6.63326C16.8903 7.63915 16.3544 8.11562 15.2825 8.11562H4.40285V3.7215ZM16.9439 14.098C16.9439 15.1038 16.408 15.5803 15.3361 15.5803H4.40285V11.1862H15.3897C16.4616 11.1862 16.9975 11.6627 16.9975 12.7215V14.098H16.9439Z" fill="white"/>
<path d="M71.7336 17.7535L64.6643 11.8415C64.6643 11.8415 67.0208 11.8415 67.0743 11.8415C69.8056 11.8415 71.0374 10.7858 71.0374 8.35765V4.13478C71.0374 1.75941 69.8056 0.650906 67.0743 0.650906H52.2395C51.8646 0.650906 51.5432 0.967622 51.5432 1.33712V18.0703C51.5432 18.387 51.811 18.6509 52.1323 18.6509H54.8637C55.185 18.6509 55.4528 18.387 55.4528 18.0703V11.7887H59.3088L67.0743 18.3342C67.2885 18.4925 67.5028 18.5981 67.8776 18.5981H71.4659C71.9479 18.5981 72.1621 18.0703 71.7336 17.7535ZM55.4528 3.71249H65.4677C66.5388 3.71249 67.0743 4.18757 67.0743 5.24329V7.35472C67.0743 8.35765 66.5388 8.83273 65.4677 8.83273H55.4528V3.71249Z" fill="white"/>
</g>
<defs>
<clipPath id="clip0_5_1151">
<rect width="97" height="18" fill="white" transform="translate(0.490479 0.650906)"/>
</clipPath>
</defs>
</svg>
