<svg width="20" height="21" viewBox="0 0 20 21" fill="none" xmlns="http://www.w3.org/2000/svg">
<mask id="mask0_5_1123" style="mask-type:alpha" maskUnits="userSpaceOnUse" x="-1" y="0" width="21" height="21">
<g clip-path="url(#clip0_5_1123)">
<g clip-path="url(#clip1_5_1123)">
<path d="M3.17226 19.7418C4.42745 19.7418 5.44499 18.7243 5.44499 17.4691C5.44499 16.2139 4.42745 15.1964 3.17226 15.1964C1.91707 15.1964 0.899536 16.2139 0.899536 17.4691C0.899536 18.7243 1.91707 19.7418 3.17226 19.7418Z" stroke="#3A3330" stroke-width="0.909091"/>
<path d="M9.9905 19.7418C11.2457 19.7418 12.2632 18.7243 12.2632 17.4691C12.2632 16.2139 11.2457 15.1964 9.9905 15.1964C8.73531 15.1964 7.71777 16.2139 7.71777 17.4691C7.71777 18.7243 8.73531 19.7418 9.9905 19.7418Z" stroke="#3A3330" stroke-width="0.909091"/>
<path d="M16.8087 19.7418C18.0639 19.7418 19.0814 18.7243 19.0814 17.4691C19.0814 16.2139 18.0639 15.1964 16.8087 15.1964C15.5535 15.1964 14.5359 16.2139 14.5359 17.4691C14.5359 18.7243 15.5535 19.7418 16.8087 19.7418Z" stroke="#3A3330" stroke-width="0.909091"/>
<path d="M3.17226 12.9236C4.42745 12.9236 5.44499 11.9061 5.44499 10.6509C5.44499 9.39571 4.42745 8.37818 3.17226 8.37818C1.91707 8.37818 0.899536 9.39571 0.899536 10.6509C0.899536 11.9061 1.91707 12.9236 3.17226 12.9236Z" stroke="#3A3330" stroke-width="0.909091"/>
<path d="M9.9905 12.9236C11.2457 12.9236 12.2632 11.9061 12.2632 10.6509C12.2632 9.39571 11.2457 8.37818 9.9905 8.37818C8.73531 8.37818 7.71777 9.39571 7.71777 10.6509C7.71777 11.9061 8.73531 12.9236 9.9905 12.9236Z" stroke="#3A3330" stroke-width="0.909091"/>
<path d="M16.8087 12.9236C18.0639 12.9236 19.0814 11.9061 19.0814 10.6509C19.0814 9.39571 18.0639 8.37818 16.8087 8.37818C15.5535 8.37818 14.5359 9.39571 14.5359 10.6509C14.5359 11.9061 15.5535 12.9236 16.8087 12.9236Z" stroke="#3A3330" stroke-width="0.909091"/>
<path d="M3.17226 6.10545C4.42745 6.10545 5.44499 5.08792 5.44499 3.83272C5.44499 2.57753 4.42745 1.56 3.17226 1.56C1.91707 1.56 0.899536 2.57753 0.899536 3.83272C0.899536 5.08792 1.91707 6.10545 3.17226 6.10545Z" stroke="#3A3330" stroke-width="0.909091"/>
<path d="M9.9905 6.10545C11.2457 6.10545 12.2632 5.08792 12.2632 3.83272C12.2632 2.57753 11.2457 1.56 9.9905 1.56C8.73531 1.56 7.71777 2.57753 7.71777 3.83272C7.71777 5.08792 8.73531 6.10545 9.9905 6.10545Z" stroke="#3A3330" stroke-width="0.909091"/>
<path d="M16.8087 6.10545C18.0639 6.10545 19.0814 5.08792 19.0814 3.83272C19.0814 2.57753 18.0639 1.56 16.8087 1.56C15.5535 1.56 14.5359 2.57753 14.5359 3.83272C14.5359 5.08792 15.5535 6.10545 16.8087 6.10545Z" stroke="#3A3330" stroke-width="0.909091"/>
</g>
</g>
</mask>
<g mask="url(#mask0_5_1123)">
<rect x="-0.00952148" y="0.650906" width="20" height="20" fill="white"/>
</g>
<defs>
<clipPath id="clip0_5_1123">
<rect width="20" height="20" fill="white" transform="translate(-0.00952148 0.650906)"/>
</clipPath>
<clipPath id="clip1_5_1123">
<rect width="20" height="20" fill="white" transform="translate(-0.00952148 0.650906)"/>
</clipPath>
</defs>
</svg>
