<svg width="21" height="21" viewBox="0 0 21 21" fill="none" xmlns="http://www.w3.org/2000/svg">
<g clip-path="url(#clip0_5_1163)">
<path fill-rule="evenodd" clip-rule="evenodd" d="M9.97046 16.6509C11.827 16.6509 13.6075 15.9134 14.9202 14.6006C16.233 13.2879 16.9705 11.5074 16.9705 9.65091C16.9705 7.7944 16.233 6.01392 14.9202 4.70116C13.6075 3.38841 11.827 2.65091 9.97046 2.65091C8.11395 2.65091 6.33347 3.38841 5.02071 4.70116C3.70796 6.01392 2.97046 7.7944 2.97046 9.65091C2.97046 11.5074 3.70796 13.2879 5.02071 14.6006C6.33347 15.9134 8.11395 16.6509 9.97046 16.6509Z" stroke="white"/>
<path d="M19.9705 19.6509L14.9705 14.6509" stroke="white" stroke-linecap="round"/>
</g>
<defs>
<clipPath id="clip0_5_1163">
<rect width="20" height="20" fill="white" transform="translate(0.970459 0.650906)"/>
</clipPath>
</defs>
</svg>
