<svg width="21" height="21" viewBox="0 0 21 21" fill="none" xmlns="http://www.w3.org/2000/svg">
<mask id="mask0_5_1176" style="mask-type:alpha" maskUnits="userSpaceOnUse" x="0" y="0" width="21" height="21">
<g clip-path="url(#clip0_5_1176)">
<g clip-path="url(#clip1_5_1176)">
<path d="M10.9705 10.1509C13.4557 10.1509 15.4705 8.13619 15.4705 5.65091C15.4705 3.16562 13.4557 1.15091 10.9705 1.15091C8.48518 1.15091 6.47046 3.16562 6.47046 5.65091C6.47046 8.13619 8.48518 10.1509 10.9705 10.1509Z" stroke="#3A3330"/>
<path d="M19.9894 20.1509H1.96823C1.70476 20.1509 1.50496 19.9542 1.49278 19.7216C1.38466 17.657 1.66906 16.0149 2.35202 14.6767C3.03262 13.3431 4.13196 12.2663 5.7335 11.3695C5.87768 11.2887 6.06851 11.2967 6.22294 11.4057L8.38364 12.931C9.93945 14.0292 12.0182 14.0292 13.574 12.931L15.7031 11.428C15.8664 11.3128 16.0684 11.3104 16.215 11.4039C17.6226 12.3021 18.7172 13.3832 19.4428 14.725C20.1678 16.0656 20.5417 17.6982 20.4592 19.727C20.45 19.9538 20.2545 20.1509 19.9894 20.1509Z" stroke="#3A3330"/>
</g>
</g>
</mask>
<g mask="url(#mask0_5_1176)">
<rect x="0.970459" y="0.650906" width="20" height="20" fill="white"/>
</g>
<defs>
<clipPath id="clip0_5_1176">
<rect width="20" height="20" fill="white" transform="translate(0.970459 0.650906)"/>
</clipPath>
<clipPath id="clip1_5_1176">
<rect width="20" height="20" fill="white" transform="translate(0.970459 0.650906)"/>
</clipPath>
</defs>
</svg>
